/* XPM */
static char *result[] = {
/* columns rows colors chars-per-pixel */
"30 30 64 1 ",
"  c red",
". c #FF0100",
"X c #FE0101",
"o c #FF0101",
"O c #FF0201",
"+ c #FE0202",
"@ c #FE0302",
"# c #FE0303",
"$ c #FE0403",
"% c #FE0504",
"& c #FE0505",
"* c #FD0605",
"= c #FE0605",
"- c #FD0706",
"; c #FD0907",
": c #FC0908",
"> c #FD0908",
", c #FC0A08",
"< c #FD0A08",
"1 c #FB0D0B",
"2 c #FC0D0A",
"3 c #FC0D0B",
"4 c #FB0F0D",
"5 c #FC0D0C",
"6 c #FC0E0C",
"7 c #FC0F0D",
"8 c #FB110E",
"9 c #FB110F",
"0 c #FB120F",
"q c #FA1310",
"w c #FA1411",
"e c #FB1411",
"r c #FA1412",
"t c #FB1412",
"y c #FA1512",
"u c #FB1512",
"i c #F91613",
"p c #FA1612",
"a c #FA1613",
"s c #FA1714",
"d c #F91814",
"f c #F91A17",
"g c #F91B17",
"h c #FA1A17",
"j c #F91D18",
"k c #F91C19",
"l c #F81D19",
"z c #F81E1A",
"x c #F5221D",
"c c #F6221C",
"v c #F7231D",
"b c #F6221E",
"n c #F6231E",
"m c #F7231E",
"M c #F6241F",
"N c #F6251F",
"B c #F62721",
"V c #F62622",
"C c #F62B25",
"Z c #F42C26",
"A c #F52C26",
"S c #F42E27",
"D c #F42F28",
"F c None",
/* pixels */
"FFFFFFFFFFFFDmbncSFFFFFFFFFFFF",
"FFFFFFFFFMs>@o  o@>qxFFFFFFFFF",
"FFFFFFFB3O          X1AFFFFFFF",
"FFFFFFh@              #aFFFFFF",
"FFFFFt                  9FFFFF",
"FFFFu                    qFFFF",
"FFFjo                    .gFFF",
"FFF%                      *FFF",
"FFa                        wFF",
"FF&                        %FF",
"Fl                          zF",
"F9                          9F",
"F:                          ,F",
"F=                          *F",
"F*                          *F",
"F&                          =F",
"F<                          -F",
"F4                          6F",
"Fg                          dF",
"FA+                        +ZF",
"FF5                        3FF",
"FFC+                      ONFF",
"FFF0                      8FFF",
"FFFF<                    >FFFF",
"FFFFF;                  >FFFFF",
"FFFFFF2                7FFFFFF",
"FFFFFFFk$            $pFFFFFFF",
"FFFFFFFFFy*o      o-sFFFFFFFFF",
"FFFFFFFFFFFvfeirafVFFFFFFFFFFF",
"FFFFFFFFFFFFFFFFFFFFFFFFFFFFFF"
};
